# xmcd
#
# Track frame offsets:
#	150
#	16389
#	31199
#	45887
#	62077
#
# Disc length: 1186 seconds
#
# Revision: 1
# Processed by: cddbd v1.5.2PL0 Copyright (c) Steve Scherf et al.
# Submitted via: audiograbber 1.83.01
#
DISCID=3004a005
DTITLE=Prinzen - Prinzen Be Cool Speak Deutsch
DYEAR=2008
DGENRE=Pop
TTITLE0=Be Cool Speak Deutsch (Radio Version)
TTITLE1=Be Cool Speak Deutsch (Short Version)
TTITLE2=Be Cool Speak Deutsch (A Capella)
TTITLE3=Be Cool Speak Deutsch (Alternative Album)
TTITLE4=My Friend
EXTD=
EXTT0=
EXTT1=
EXTT2=
EXTT3=
EXTT4=
PLAYORDER=
